<?xml version="1.0" encoding="utf-8"?>
<!-- Generator: Adobe Illustrator 16.0.0, SVG Export Plug-In . SVG Version: 6.00 Build 0)  -->
<!DOCTYPE svg PUBLIC "-//W3C//DTD SVG 1.1//EN" "http://www.w3.org/Graphics/SVG/1.1/DTD/svg11.dtd">
<svg version="1.1" id="Layer_2" xmlns="http://www.w3.org/2000/svg" xmlns:xlink="http://www.w3.org/1999/xlink" x="0px" y="0px"
	 width="300px" height="300px" viewBox="0 0 300 300" enable-background="new 0 0 300 300" xml:space="preserve">
<g>
	<path fill="none" stroke="#000000" stroke-width="4" stroke-miterlimit="10" d="M223.134,127.458c0-38.273-31.026-69.3-69.3-69.3
		s-69.3,31.026-69.3,69.3c0,30.327,19.481,56.098,46.609,65.496v33.242c0,4.064,3.295,7.359,7.359,7.359h30.664
		c4.064,0,7.359-3.295,7.359-7.359v-33.242C203.654,183.557,223.134,157.785,223.134,127.458z"/>
	<path d="M175.827,242.755c0,3.387-2.746,6.133-6.133,6.133h-34.344c-3.387,0-6.133-2.746-6.133-6.133l0,0
		c0-3.388,2.746-6.133,6.133-6.133h34.344C173.081,236.622,175.827,239.367,175.827,242.755L175.827,242.755z"/>
	<path d="M175.827,256.86c0,3.387-2.746,6.133-6.133,6.133h-34.344c-3.387,0-6.133-2.746-6.133-6.133l0,0
		c0-3.388,2.746-6.133,6.133-6.133h34.344C173.081,250.728,175.827,253.473,175.827,256.86L175.827,256.86z"/>
	<path d="M175.827,270.966c0,3.387-2.746,6.132-6.133,6.132h-34.344c-3.387,0-6.133-2.745-6.133-6.132l0,0
		c0-3.388,2.746-6.133,6.133-6.133h34.344C173.081,264.833,175.827,267.578,175.827,270.966L175.827,270.966z"/>
	<path fill="none" stroke="#000000" stroke-width="4" stroke-miterlimit="10" d="M145.691,232.644l-7.631-102.605
		c0,0,5.238-11.833,9.471-10.552c3.521,1.066-3.381,13.267,0,14.718c3.987,1.712,4.883-15.176,9.199-14.718
		c4.765,0.505-2.562,17.185,1.84,19.08c2.767,1.192,4.408-10.145,7.359-9.54c3.221,0.66-2.848,11.507,0,13.151
		c1.115,0.645,3.68-4.9,3.68-3.611c0,15.57-7.359,93.763-7.359,93.763"/>
	<rect x="36.613" y="146.158" width="30.664" height="11.135"/>
	<rect x="69.202" y="195.027" transform="matrix(0.7042 -0.71 0.71 0.7042 -117.4156 119.3499)" width="30.665" height="11.136"/>
	<rect x="199.216" y="204.332" transform="matrix(-0.7042 -0.71 0.71 -0.7042 216.6183 510.0418)" width="30.664" height="11.136"/>
	
		<rect x="48.083" y="78.704" transform="matrix(-0.7071 -0.7071 0.7071 -0.7071 48.6648 188.7024)" width="30.664" height="11.136"/>
	
		<rect x="96.102" y="31.126" transform="matrix(-0.4395 -0.8982 0.8982 -0.4395 127.4481 152.9151)" width="30.663" height="11.136"/>
	<rect x="169.069" y="31.126" transform="matrix(0.2037 -0.979 0.979 0.2037 110.9191 209.7567)" width="30.663" height="11.136"/>
	<rect x="219.872" y="73.777" transform="matrix(0.8275 -0.5615 0.5615 0.8275 -3.9734 145.7583)" width="30.663" height="11.136"/>
	<rect x="231.657" y="140.288" transform="matrix(0.9998 -0.0197 0.0197 0.9998 -2.8229 4.8895)" width="30.663" height="11.137"/>
</g>
</svg>
