<?xml version="1.0" encoding="utf-8"?>
<!-- Generator: Adobe Illustrator 16.0.0, SVG Export Plug-In . SVG Version: 6.00 Build 0)  -->
<!DOCTYPE svg PUBLIC "-//W3C//DTD SVG 1.1//EN" "http://www.w3.org/Graphics/SVG/1.1/DTD/svg11.dtd">
<svg version="1.1" id="Layer_3" xmlns="http://www.w3.org/2000/svg" xmlns:xlink="http://www.w3.org/1999/xlink" x="0px" y="0px"
	 width="300px" height="300px" viewBox="0 0 300 300" enable-background="new 0 0 300 300" xml:space="preserve">
<g>
	<path d="M65.484,214.339c-11.564,0-22.772-4.124-31.563-11.614c-8.272-7.049-13.962-16.669-16.141-27.233
		c-0.484,0.077-0.975,0.117-1.47,0.117c-5.074,0-9.201-4.13-9.201-9.206c0-5.075,4.127-9.204,9.201-9.204
		c0.395,0,0.788,0.025,1.177,0.074c1.884-10.923,7.477-20.917,15.864-28.29c8.883-7.808,20.294-12.108,32.133-12.108
		c11.846,0,23.264,4.306,32.149,12.124c8.383,7.375,13.97,17.371,15.851,28.294c0.434-0.063,0.873-0.094,1.315-0.094
		c5.073,0,9.201,4.129,9.201,9.204c0,5.076-4.128,9.206-9.201,9.206c-0.542,0-1.078-0.048-1.606-0.142
		c-2.175,10.566-7.858,20.188-16.126,27.241C88.272,210.208,77.056,214.339,65.484,214.339z M20.149,171.577l0.307,1.793
		c1.795,10.499,7.273,20.105,15.425,27.052c8.245,7.024,18.758,10.893,29.604,10.893c10.854,0,21.374-3.873,29.62-10.909
		c8.157-6.956,13.631-16.576,15.417-27.087l0.311-1.828l1.728,0.673c0.716,0.279,1.469,0.422,2.239,0.422
		c3.406,0,6.178-2.773,6.178-6.183c0-3.407-2.772-6.181-6.178-6.181c-0.703,0-1.395,0.118-2.055,0.352l-1.749,0.616l-0.251-1.838
		c-1.483-10.844-6.848-20.816-15.106-28.083c-8.334-7.332-19.043-11.371-30.153-11.371c-11.104,0-21.807,4.033-30.138,11.356
		c-8.255,7.257-13.624,17.219-15.117,28.054l-0.248,1.8l-1.725-0.572c-0.63-0.21-1.285-0.314-1.947-0.314
		c-3.407,0-6.178,2.773-6.178,6.181c0,3.409,2.771,6.183,6.178,6.183c0.734,0,1.452-0.129,2.133-0.38L20.149,171.577z"/>
	<path d="M53.901,167.358c-2.632,0-4.693-2.762-4.693-6.289c0-3.524,2.062-6.286,4.693-6.286c2.632,0,4.693,2.762,4.693,6.286
		C58.595,164.597,56.534,167.358,53.901,167.358z M53.901,157.807c-0.681,0-1.67,1.271-1.67,3.263c0,1.992,0.989,3.264,1.67,3.264
		c0.682,0,1.671-1.271,1.671-3.264C55.572,159.078,54.583,157.807,53.901,157.807z"/>
	<path d="M51.885,151.149c3.488-1.035,7.122,0.436,8.979,3.363c-0.008-0.719-0.113-1.449-0.327-2.174
		c-1.25-4.215-5.678-6.617-9.89-5.366c-4.211,1.251-6.612,5.682-5.362,9.895c0.214,0.725,0.525,1.394,0.91,2.001
		C46.154,155.4,48.397,152.185,51.885,151.149z"/>
	<path d="M75.855,167.409c-2.632,0-4.694-2.762-4.694-6.287c0-3.526,2.062-6.288,4.694-6.288s4.693,2.762,4.693,6.288
		C80.549,164.647,78.487,167.409,75.855,167.409z M75.855,157.859c-0.681,0-1.671,1.271-1.671,3.263s0.99,3.263,1.671,3.263
		s1.671-1.271,1.671-3.263S76.537,157.859,75.855,157.859z"/>
	<path d="M77.872,151.2c-3.488-1.035-7.123,0.436-8.979,3.363c0.008-0.719,0.113-1.448,0.328-2.174
		c1.25-4.213,5.678-6.615,9.89-5.364c4.211,1.25,6.612,5.68,5.362,9.893c-0.215,0.725-0.525,1.395-0.911,2.002
		C83.603,155.453,81.359,152.235,77.872,151.2z"/>
	<g>
		<path d="M65.554,193.855c-10.65,0-19.966-6.821-23.181-16.973l2.881-0.913c2.815,8.889,10.973,14.86,20.3,14.86
			c9.327,0,17.484-5.972,20.299-14.86l2.882,0.913C85.521,187.034,76.205,193.855,65.554,193.855z"/>
	</g>
	<g>
		<path d="M17.226,171.349c-2.241-0.709-3.747-2.768-3.747-5.121s1.506-4.411,3.747-5.122l0.914,2.884
			c-0.979,0.31-1.637,1.209-1.637,2.238s0.658,1.929,1.637,2.239L17.226,171.349z"/>
	</g>
	<g>
		<path d="M113.442,171.637l-0.914-2.883c0.979-0.311,1.638-1.211,1.638-2.239c0-1.029-0.658-1.929-1.637-2.239l0.913-2.883
			c2.241,0.71,3.747,2.769,3.747,5.122C117.189,168.867,115.683,170.926,113.442,171.637z"/>
	</g>
</g>
<g>
	<path d="M203.598,213.546c-2.631,0-4.692-2.762-4.692-6.286c0-3.527,2.062-6.289,4.692-6.289c2.633,0,4.693,2.762,4.693,6.289
		C208.291,210.784,206.23,213.546,203.598,213.546z M203.598,203.996c-0.682,0-1.671,1.271-1.671,3.264s0.989,3.263,1.671,3.263
		s1.671-1.271,1.671-3.263S204.279,203.996,203.598,203.996z"/>
	<path d="M201.582,197.338c3.488-1.036,7.122,0.435,8.979,3.363c-0.009-0.72-0.113-1.45-0.328-2.174
		c-1.249-4.213-5.678-6.615-9.891-5.366c-4.211,1.251-6.611,5.681-5.362,9.896c0.216,0.723,0.526,1.393,0.912,2.001
		C195.851,201.59,198.094,198.374,201.582,197.338z"/>
	<path d="M225.551,213.598c-2.63,0-4.692-2.762-4.692-6.287s2.062-6.287,4.692-6.287c2.633,0,4.694,2.762,4.694,6.287
		S228.184,213.598,225.551,213.598z M225.551,204.048c-0.681,0-1.67,1.271-1.67,3.263c0,1.992,0.989,3.264,1.67,3.264
		c0.683,0,1.671-1.271,1.671-3.264C227.222,205.319,226.233,204.048,225.551,204.048z"/>
	<path d="M227.568,197.389c-3.488-1.035-7.122,0.436-8.978,3.364c0.008-0.72,0.111-1.45,0.326-2.174
		c1.251-4.214,5.678-6.616,9.891-5.366c4.21,1.251,6.612,5.681,5.361,9.894c-0.213,0.724-0.525,1.394-0.909,2.002
		C233.3,201.641,231.057,198.425,227.568,197.389z"/>
	<g>
		<path d="M175.22,217.761c-2.241-0.71-3.746-2.769-3.746-5.122s1.505-4.41,3.746-5.121l0.913,2.882
			c-0.979,0.311-1.638,1.21-1.638,2.239s0.658,1.929,1.638,2.238L175.22,217.761z"/>
	</g>
	<g>
		<path d="M253.177,217.761l-0.914-2.884c0.98-0.31,1.638-1.209,1.638-2.238s-0.657-1.929-1.638-2.239l0.914-2.882
			c2.24,0.711,3.747,2.768,3.747,5.121S255.417,217.051,253.177,217.761z"/>
	</g>
	<path d="M214.576,268.3c-9.745,0-19.11-4.893-26.367-13.776c-6.796-8.319-11.308-19.59-12.787-31.881
		c-0.118,0.004-0.235,0.007-0.354,0.007c-4.781,0-8.67-4.29-8.67-9.563s3.889-9.563,8.67-9.563c0.163,0,0.327,0.004,0.489,0.016
		c1.631-12.047,6.194-23.059,12.937-31.153c7.213-8.66,16.477-13.43,26.083-13.43c9.608,0,18.872,4.77,26.086,13.43
		c6.741,8.095,11.306,19.105,12.937,31.151c0.159-0.01,0.321-0.014,0.483-0.014c4.78,0,8.671,4.29,8.671,9.563
		s-3.891,9.563-8.671,9.563c-0.117,0-0.232-0.003-0.349-0.007c-1.479,12.291-5.991,23.562-12.788,31.881
		C233.688,263.407,224.324,268.3,214.576,268.3z M178.081,218.984l0.176,1.779c1.213,12.316,5.578,23.627,12.293,31.846
		c6.673,8.167,15.206,12.666,24.026,12.666c8.823,0,17.356-4.499,24.029-12.665c6.715-8.22,11.08-19.529,12.293-31.846l0.176-1.777
		l1.724,0.466c0.424,0.113,0.854,0.173,1.284,0.173c3.114,0,5.647-2.934,5.647-6.54c0-3.605-2.533-6.54-5.647-6.54
		c-0.464,0-0.925,0.065-1.371,0.193l-1.719,0.498l-0.202-1.781c-1.366-12.078-5.789-23.136-12.451-31.135
		c-6.628-7.959-15.066-12.342-23.763-12.342c-8.694,0-17.132,4.383-23.761,12.342c-6.663,7.999-11.084,19.057-12.451,31.138
		l-0.201,1.781l-1.721-0.499c-0.448-0.129-0.91-0.195-1.375-0.195c-3.113,0-5.647,2.935-5.647,6.54c0,3.606,2.534,6.54,5.647,6.54
		c0.432,0,0.864-0.06,1.289-0.174L178.081,218.984z"/>
	<g>
		<path d="M214.771,245.279c-0.217,0-0.434-0.004-0.652-0.009c-10.11-0.277-18.775-6.997-21.562-16.717l2.905-0.834
			c2.422,8.447,9.952,14.286,18.74,14.527c0.19,0.004,0.378,0.008,0.567,0.008c8.556,0,16.122-5.359,18.941-13.481l2.855,0.991
			C233.321,239.111,224.615,245.279,214.771,245.279z"/>
	</g>
</g>
<g>
	<path d="M164.972,76.508c-2.631,0-4.691-2.762-4.691-6.287s2.061-6.286,4.691-6.286c2.633,0,4.693,2.761,4.693,6.286
		S167.604,76.508,164.972,76.508z M164.972,66.959c-0.68,0-1.669,1.271-1.669,3.262c0,1.992,0.989,3.263,1.669,3.263
		c0.683,0,1.673-1.271,1.673-3.263C166.645,68.23,165.654,66.959,164.972,66.959z"/>
	<path d="M162.957,60.3c3.487-1.035,7.121,0.435,8.978,3.364c-0.008-0.719-0.113-1.45-0.327-2.174
		c-1.25-4.214-5.678-6.616-9.89-5.365c-4.212,1.25-6.613,5.68-5.363,9.894c0.215,0.724,0.525,1.393,0.911,2.001
		C157.226,64.552,159.468,61.335,162.957,60.3z"/>
	<path d="M186.927,76.56c-2.632,0-4.693-2.761-4.693-6.287c0-3.525,2.062-6.288,4.693-6.288s4.693,2.762,4.693,6.288
		C191.62,73.799,189.559,76.56,186.927,76.56z M186.927,67.01c-0.682,0-1.67,1.271-1.67,3.263s0.988,3.263,1.67,3.263
		s1.671-1.271,1.671-3.263S187.608,67.01,186.927,67.01z"/>
	<path d="M188.944,60.352c-3.489-1.036-7.123,0.435-8.979,3.363c0.009-0.719,0.113-1.45,0.327-2.174
		c1.25-4.214,5.679-6.616,9.89-5.366s6.612,5.681,5.362,9.894c-0.214,0.724-0.524,1.394-0.91,2.001
		C194.675,64.603,192.431,61.387,188.944,60.352z"/>
	<g>
		<path d="M180.632,97.166c-4.057,0-7.904-2.052-10.157-5.614l2.556-1.617c2.113,3.343,6.103,4.91,9.928,3.904
			c3.825-1.007,6.527-4.337,6.723-8.287l3.019,0.15c-0.262,5.272-3.866,9.717-8.972,11.061
			C182.697,97.034,181.657,97.166,180.632,97.166z"/>
	</g>
	<g>
		<path d="M167.836,106.537c-11.95,0-23.624-2.866-32.87-8.069c-8.75-4.923-14.999-11.729-17.739-19.275
			c-0.103,0.006-0.205,0.009-0.308,0.009c-3.63,0-6.584-3.413-6.584-7.608c0-4,2.686-7.289,6.082-7.585
			c2.044-8.186,8.093-15.647,17.164-21.122c9.481-5.725,21.646-8.877,34.254-8.877c13.841,0,26.872,3.709,36.694,10.443
			c9.996,6.854,15.502,16.024,15.502,25.821c0,9.797-5.506,18.966-15.502,25.821C194.708,102.828,181.677,106.537,167.836,106.537z
			 M119.238,75.559l0.451,1.468c4.715,15.347,24.964,26.486,48.146,26.486c27.115,0,49.173-14.912,49.173-33.24
			s-22.058-33.24-49.173-33.24c-24.535,0-45.487,12.391-48.735,28.823l-0.284,1.438l-1.444-0.239
			c-0.183-0.03-0.326-0.044-0.453-0.044c-1.964,0-3.561,2.056-3.561,4.583c0,2.528,1.597,4.583,3.561,4.583
			c0.28,0,0.561-0.047,0.858-0.143L119.238,75.559z"/>
	</g>
	<path d="M118.24,75.135c-0.825,0-1.462-0.261-1.931-0.578c-2.296-1.544-1.833-4.627-0.434-6.838l2.556,1.615
		c-0.217,0.348-1.167,2.223-0.436,2.715c0.532,0.356,2.431-0.721,3.833-2.18l2.184,2.092c-0.042,0.044-1.045,1.087-2.349,1.947
		C120.28,74.818,119.147,75.135,118.24,75.135z"/>
</g>
<g>
	<g>
		<path fill="none" d="M231.594,92.969c0,0,1.81,0.953,3.552,2.028c1.752,1.061,3.413,2.248,3.413,2.248l5.429-7.686
			c0,0-1.912-1.367-3.92-2.582c-1.994-1.234-4.072-2.325-4.072-2.326L231.594,92.969z"/>
		<path fill-rule="evenodd" clip-rule="evenodd" d="M241.274,93.4c-0.748,1.056-1.826,1.745-2.924,2.022
			c-1.107,0.281-2.243,0.166-3.203-0.425c-0.961-0.595-1.584-1.548-1.832-2.666c-0.249-1.107-0.125-2.377,0.479-3.522
			c0.608-1.15,1.598-1.952,2.742-2.296c1.138-0.338,2.429-0.218,3.531,0.465c1.106,0.678,1.806,1.769,2.014,2.94
			C242.292,91.096,242.026,92.339,241.274,93.4z"/>
	</g>
	<g>
		<path fill="none" d="M246.906,104.41c0,0,0.342,0.368,0.856,0.92c0.501,0.562,1.164,1.314,1.79,2.094
			c0.628,0.779,1.233,1.572,1.663,2.183c0.444,0.602,0.712,1.021,0.712,1.021l7.791-5.276c0,0-0.326-0.506-0.858-1.23
			c-0.517-0.736-1.245-1.688-1.994-2.619c-0.75-0.931-1.537-1.827-2.134-2.493c-0.608-0.654-1.014-1.09-1.014-1.09L246.906,104.41z"
			/>
		<path fill-rule="evenodd" clip-rule="evenodd" d="M255.825,107.988c-1.08,0.728-2.309,0.98-3.442,0.879
			c-1.122-0.114-2.139-0.586-2.83-1.444c-0.692-0.858-0.954-1.949-0.825-3.08c0.124-1.119,0.647-2.283,1.586-3.18
			c0.938-0.896,2.132-1.341,3.334-1.295c1.193,0.051,2.387,0.604,3.219,1.633c0.829,1.029,1.133,2.312,0.927,3.497
			C257.604,106.178,256.896,107.265,255.825,107.988z"/>
	</g>
	<g>
		<path fill="none" d="M255.457,116.873c0,0,0.054,0.112,0.145,0.308c0.084,0.198,0.206,0.483,0.353,0.823
			c0.304,0.676,0.647,1.604,0.985,2.531c0.157,0.468,0.316,0.937,0.463,1.376c0.129,0.444,0.251,0.86,0.355,1.216
			c0.108,0.355,0.184,0.656,0.232,0.866c0.054,0.211,0.082,0.331,0.082,0.331l9.128-2.289c0,0-0.037-0.146-0.1-0.402
			c-0.062-0.256-0.155-0.622-0.286-1.055c-0.126-0.435-0.274-0.941-0.435-1.483c-0.18-0.537-0.37-1.109-0.563-1.681
			c-0.41-1.135-0.834-2.267-1.204-3.093c-0.178-0.417-0.326-0.763-0.431-1.005c-0.113-0.239-0.175-0.375-0.175-0.375
			L255.457,116.873z"/>
		<path fill-rule="evenodd" clip-rule="evenodd" d="M262.638,123.178c-1.267,0.315-2.5,0.128-3.529-0.348
			c-0.515-0.241-0.967-0.559-1.328-0.947c-0.371-0.384-0.67-0.832-0.841-1.35c-0.371-1.024-0.229-2.134,0.253-3.145
			c0.499-1.014,1.368-1.942,2.539-2.485c1.183-0.546,2.463-0.583,3.576-0.13c1.127,0.44,2.057,1.38,2.509,2.637
			c0.211,0.633,0.295,1.276,0.242,1.894c-0.066,0.622-0.253,1.211-0.546,1.733C264.934,122.087,263.889,122.868,262.638,123.178z"/>
	</g>
	<g>
		<path fill="none" d="M259.251,131.42c0,0,0.039,0.498,0.097,1.246c0.031,0.373,0.031,0.812,0.054,1.282
			c0.014,0.47,0.042,0.971,0.029,1.475c-0.003,0.503-0.005,1.006-0.007,1.479c-0.022,0.473-0.04,0.914-0.056,1.292
			c-0.018,0.379-0.033,0.694-0.042,0.915c-0.018,0.221-0.029,0.348-0.029,0.348l9.386,0.665c0,0,0.013-0.146,0.033-0.404
			c0.013-0.26,0.028-0.63,0.051-1.072c0.018-0.445,0.04-0.963,0.062-1.519c0.004-0.558,0.009-1.152,0.011-1.746
			c0.014-0.594-0.018-1.191-0.035-1.75c-0.024-0.559-0.029-1.08-0.064-1.527c-0.069-0.894-0.113-1.49-0.113-1.49L259.251,131.42z"/>
		<path fill-rule="evenodd" clip-rule="evenodd" d="M263.993,139.789c-1.289-0.094-2.429-0.659-3.252-1.448
			c-0.408-0.396-0.732-0.85-0.949-1.342c-0.235-0.491-0.364-1.021-0.361-1.577c0.015-0.557,0.11-1.083,0.337-1.575
			c0.215-0.491,0.563-0.948,0.951-1.344c0.794-0.792,1.93-1.373,3.224-1.487c1.291-0.114,2.502,0.285,3.416,1.078
			c0.463,0.395,0.81,0.886,1.073,1.444c0.253,0.557,0.424,1.185,0.408,1.84c-0.002,0.657-0.138,1.283-0.382,1.843
			c-0.262,0.558-0.63,1.049-1.073,1.446C266.502,139.468,265.291,139.883,263.993,139.789z"/>
	</g>
	<g>
		<path fill-rule="evenodd" clip-rule="evenodd" d="M253.304,142.363l-10.277-1.381c0,0,0.073,0.074,0.211,0.212
			c0.138,0.139,0.337,0.343,0.576,0.612c0.476,0.538,1.193,1.316,1.985,2.32c1.61,1.994,3.576,4.922,5.326,8.163
			c1.744,3.226,3.228,6.73,4.248,9.443c0.525,1.359,0.892,2.501,1.174,3.315c0.272,0.816,0.428,1.282,0.428,1.282
			s0.441-0.213,1.213-0.585c0.768-0.383,1.903-0.921,3.213-1.631c1.309-0.71,2.879-1.553,4.496-2.554
			c0.813-0.501,1.677-1.017,2.521-1.579c0.846-0.56,1.706-1.145,2.573-1.746c3.421-2.419,6.779-5.233,9.19-7.595
			c1.22-1.166,2.188-2.218,2.886-2.951c0.351-0.367,0.612-0.665,0.792-0.87c0.178-0.207,0.275-0.315,0.275-0.315l-10.277-1.38
			L253.304,142.363z"/>
	</g>
</g>
<g>
	<g>
		<path fill="none" d="M153.921,244.673c0,0-0.557,0.222-1.408,0.505c-0.426,0.146-0.918,0.323-1.452,0.497
			c-0.536,0.165-1.108,0.343-1.681,0.521c-0.57,0.188-1.152,0.325-1.692,0.478c-0.543,0.144-1.046,0.297-1.483,0.396
			c-0.874,0.204-1.456,0.34-1.456,0.34l2.088,9.175c0,0,0.66-0.154,1.649-0.386c0.495-0.113,1.062-0.283,1.676-0.445
			c0.611-0.174,1.271-0.331,1.914-0.541c0.646-0.2,1.292-0.401,1.897-0.589c0.604-0.196,1.161-0.396,1.643-0.56
			c0.963-0.324,1.593-0.572,1.593-0.572L153.921,244.673z"/>
		<path fill-rule="evenodd" clip-rule="evenodd" d="M145.792,251.998c-0.286-1.267,0.001-2.542,0.653-3.569
			c0.33-0.505,0.741-0.993,1.235-1.369c0.492-0.39,1.069-0.658,1.698-0.864c0.631-0.196,1.271-0.256,1.897-0.198
			c0.619,0.041,1.222,0.193,1.781,0.453c1.118,0.524,2.051,1.414,2.507,2.632c0.454,1.211,0.328,2.534-0.306,3.645
			c-0.314,0.559-0.751,1.076-1.288,1.509c-0.541,0.418-1.184,0.755-1.896,0.976c-0.712,0.23-1.443,0.268-2.126,0.216
			c-0.686-0.065-1.325-0.231-1.899-0.543C146.903,254.277,146.078,253.263,145.792,251.998z"/>
	</g>
	<g>
		<path fill="none" d="M131.923,249.082c0,0-0.592,0.002-1.48,0.004c-0.444,0.002-0.963,0.004-1.518,0.006
			c-0.556-0.001-1.145-0.053-1.735-0.077c-0.59-0.029-1.18-0.059-1.733-0.088c-0.551-0.046-1.063-0.114-1.503-0.159
			c-0.879-0.096-1.466-0.161-1.466-0.161l-1.213,9.332c0,0,0.682,0.075,1.705,0.188c0.511,0.052,1.107,0.128,1.747,0.182
			c0.641,0.033,1.324,0.069,2.008,0.104c0.684,0.029,1.368,0.084,2.008,0.087c0.641-0.003,1.239-0.004,1.751-0.005
			c1.025-0.004,1.708-0.007,1.708-0.007L131.923,249.082z"/>
		<path fill-rule="evenodd" clip-rule="evenodd" d="M121.88,253.274c0.169-1.286,0.879-2.394,1.836-3.146
			c0.48-0.376,1.024-0.662,1.607-0.838c0.587-0.21,1.216-0.31,1.868-0.276c0.652,0.024,1.266,0.22,1.833,0.447
			c0.566,0.236,1.081,0.578,1.522,1.003c0.88,0.85,1.477,2.024,1.517,3.322c0.041,1.297-0.505,2.475-1.471,3.328
			c-0.482,0.429-1.066,0.775-1.721,1.014c-0.654,0.249-1.38,0.314-2.136,0.284c-0.755-0.039-1.468-0.207-2.1-0.48
			c-0.63-0.305-1.18-0.714-1.618-1.188C122.137,255.79,121.71,254.562,121.88,253.274z"/>
	</g>
	<g>
		<path fill="none" d="M114.146,246.868c0,0-0.562-0.174-1.405-0.435c-0.421-0.131-0.913-0.283-1.44-0.447
			c-0.514-0.198-1.063-0.41-1.612-0.623c-0.55-0.211-1.099-0.423-1.614-0.62c-0.261-0.091-0.502-0.204-0.731-0.314
			c-0.229-0.106-0.446-0.209-0.646-0.302c-0.801-0.375-1.335-0.625-1.335-0.625l-4.073,8.482c0,0,0.622,0.29,1.554,0.726
			c0.233,0.108,0.486,0.227,0.753,0.351c0.266,0.128,0.548,0.256,0.852,0.366c0.601,0.231,1.241,0.479,1.883,0.728
			c0.641,0.246,1.283,0.492,1.884,0.723c0.615,0.192,1.189,0.372,1.681,0.526c0.985,0.304,1.642,0.507,1.642,0.507L114.146,246.868z
			"/>
		<path fill-rule="evenodd" clip-rule="evenodd" d="M103.324,247.744c0.563-1.169,1.582-1.991,2.722-2.398
			c0.575-0.212,1.168-0.284,1.789-0.297c0.622-0.017,1.248,0.082,1.854,0.314c0.607,0.233,1.136,0.585,1.59,1.008
			c0.464,0.392,0.846,0.871,1.135,1.405c0.575,1.07,0.784,2.367,0.427,3.615c-0.357,1.246-1.239,2.205-2.428,2.729
			c-0.593,0.262-1.26,0.416-1.962,0.446c-0.691-0.001-1.411-0.142-2.12-0.412c-0.708-0.273-1.335-0.656-1.853-1.112
			c-0.516-0.461-0.898-1.048-1.167-1.634C102.778,250.219,102.76,248.914,103.324,247.744z"/>
	</g>
	<g>
		<path fill-rule="evenodd" clip-rule="evenodd" d="M104.391,236.597l5.156-8.996c0,0-0.421,0.14-1.16,0.384
			c-0.74,0.22-1.792,0.466-3.13,0.766c-0.664,0.14-1.412,0.317-2.193,0.436c-0.775,0.105-1.608,0.209-2.489,0.306
			c-0.878,0.092-1.814,0.193-2.768,0.255c-0.935,0.026-1.902,0.042-2.887,0.045c-0.984,0-1.991-0.003-2.988-0.035
			c-0.971-0.069-1.942-0.15-2.895-0.24c-0.953-0.09-1.886-0.188-2.782-0.291c-0.225-0.026-0.446-0.052-0.664-0.079
			c-0.212-0.035-0.42-0.068-0.625-0.103c-0.413-0.072-0.812-0.141-1.195-0.209c-1.54-0.272-2.851-0.531-3.775-0.719
			c-0.463-0.096-0.828-0.172-1.076-0.223c-0.251-0.052-0.38-0.083-0.38-0.083s0.004,0.134,0.022,0.382
			c0.019,0.249,0.045,0.615,0.078,1.08c0.071,0.936,0.181,2.282,0.347,3.935c0.043,0.414,0.088,0.847,0.135,1.294
			c0.025,0.225,0.051,0.454,0.077,0.687c0.036,0.226,0.072,0.457,0.109,0.689c0.149,0.935,0.318,1.931,0.507,2.975
			c0.188,1.043,0.396,2.133,0.624,3.253c0.261,1.092,0.56,2.199,0.867,3.328c0.309,1.129,0.636,2.269,0.976,3.402
			c0.37,1.107,0.778,2.189,1.176,3.257c0.402,1.066,0.809,2.106,1.209,3.1c0.411,0.984,0.861,1.879,1.265,2.733
			c0.825,1.691,1.545,3.145,2.093,4.133c0.574,0.973,0.902,1.529,0.902,1.529l5.156-8.997L104.391,236.597z"/>
	</g>
</g>
<g>
	<g>
		<path fill="none" d="M47.083,109.645c0,0-0.146-2.065-0.139-4.135c0.004-1.034,0.032-2.066,0.074-2.837
			c0.021-0.387,0.039-0.708,0.052-0.934c0.017-0.225,0.027-0.353,0.027-0.353l-9.385-0.685c0,0-0.012,0.15-0.031,0.412
			c-0.015,0.262-0.036,0.637-0.062,1.087c-0.048,0.901-0.082,2.1-0.085,3.3c-0.01,2.398,0.161,4.789,0.161,4.789L47.083,109.645z"/>
		<path fill-rule="evenodd" clip-rule="evenodd" d="M42.402,101.043c1.293,0.096,2.427,0.671,3.242,1.476
			c0.807,0.809,1.306,1.85,1.3,2.99c0,1.141-0.494,2.183-1.31,2.992c-0.812,0.804-1.953,1.375-3.248,1.466
			c-1.292,0.09-2.501-0.336-3.395-1.146c-0.891-0.806-1.458-1.997-1.457-3.323c0.005-1.326,0.569-2.517,1.467-3.321
			C39.894,101.368,41.107,100.946,42.402,101.043z"/>
	</g>
	<g>
		<path fill="none" d="M49.075,90.49c0,0,0.576-1.941,1.341-3.798c0.375-0.932,0.798-1.839,1.12-2.517
			c0.338-0.668,0.564-1.114,0.564-1.114l-8.326-4.385c0,0-0.279,0.551-0.697,1.376c-0.398,0.833-0.917,1.952-1.377,3.092
			c-0.937,2.274-1.631,4.619-1.631,4.619L49.075,90.49z"/>
		<path fill-rule="evenodd" clip-rule="evenodd" d="M47.936,80.868c1.147,0.608,1.968,1.591,2.396,2.631
			c0.44,1.053,0.499,2.168,0.083,3.194c-0.417,1.025-1.249,1.786-2.293,2.236c-1.055,0.439-2.302,0.574-3.552,0.198
			c-1.235-0.371-2.235-1.207-2.761-2.293c-0.54-1.086-0.622-2.428-0.109-3.688c0.51-1.262,1.518-2.168,2.659-2.573
			C45.517,80.17,46.79,80.262,47.936,80.868z"/>
	</g>
	<g>
		<path fill="none" d="M56.037,77.029c0,0,0.078-0.097,0.213-0.268c0.135-0.17,0.323-0.417,0.574-0.695
			c0.244-0.282,0.529-0.612,0.834-0.964c0.321-0.339,0.664-0.701,1.007-1.062c0.707-0.704,1.416-1.406,1.989-1.893
			c0.281-0.25,0.514-0.458,0.678-0.603c0.163-0.146,0.264-0.221,0.265-0.221l-6.047-7.209c0,0-0.123,0.092-0.324,0.271
			s-0.49,0.434-0.836,0.74c-0.702,0.602-1.584,1.466-2.457,2.34c-0.425,0.449-0.849,0.898-1.248,1.319
			c-0.38,0.438-0.735,0.847-1.039,1.197c-0.309,0.347-0.545,0.653-0.714,0.865c-0.168,0.212-0.265,0.333-0.265,0.333L56.037,77.029z
			"/>
		<path fill-rule="evenodd" clip-rule="evenodd" d="M58.572,67.717c0.828,0.991,1.213,2.21,1.224,3.346
			c-0.006,1.126-0.354,2.201-1.131,2.978c-0.376,0.401-0.836,0.686-1.338,0.881c-0.491,0.204-1.038,0.307-1.608,0.313
			c-1.136,0.014-2.344-0.323-3.368-1.132c-1.013-0.799-1.631-1.945-1.715-3.158c-0.041-0.603,0.043-1.227,0.252-1.829
			c0.22-0.593,0.576-1.152,1.045-1.649c0.964-0.969,2.223-1.448,3.445-1.374C56.591,66.148,57.736,66.718,58.572,67.717z"/>
	</g>
	<g>
		<path fill="none" d="M67.569,67.118c0,0,0.106-0.07,0.303-0.176c0.195-0.108,0.473-0.263,0.807-0.449
			c0.658-0.388,1.578-0.841,2.493-1.303c0.455-0.234,0.934-0.431,1.37-0.635c0.442-0.195,0.842-0.397,1.207-0.536
			c0.718-0.292,1.198-0.487,1.198-0.487l-3.489-8.739c0,0-0.555,0.227-1.388,0.566c-0.418,0.161-0.893,0.396-1.408,0.624
			c-0.511,0.239-1.065,0.471-1.604,0.746c-1.08,0.542-2.161,1.08-2.949,1.54c-0.397,0.222-0.728,0.407-0.959,0.537
			c-0.233,0.126-0.361,0.209-0.361,0.209L67.569,67.118z"/>
		<path fill-rule="evenodd" clip-rule="evenodd" d="M73.201,59.16c0.479,1.206,0.461,2.485,0.085,3.557
			c-0.193,0.53-0.459,1.042-0.814,1.462c-0.351,0.428-0.796,0.755-1.3,1.011c-0.505,0.255-1.044,0.38-1.596,0.39
			c-0.553,0.008-1.096-0.062-1.639-0.255c-1.076-0.376-2.101-1.151-2.759-2.262c-0.665-1.122-0.817-2.384-0.481-3.546
			c0.169-0.575,0.45-1.146,0.852-1.615c0.403-0.47,0.912-0.876,1.509-1.176c0.595-0.3,1.235-0.426,1.853-0.451
			c0.62-0.018,1.222,0.077,1.784,0.316C71.814,57.054,72.722,57.954,73.201,59.16z"/>
	</g>
	<g>
		<path fill-rule="evenodd" clip-rule="evenodd" d="M80.265,67.616l3.266,9.842c0,0,0.157-0.391,0.434-1.075
			c0.144-0.341,0.311-0.77,0.532-1.241c0.229-0.474,0.486-1.009,0.768-1.593c0.566-1.192,1.336-2.511,2.195-3.986
			c0.893-1.418,1.888-2.986,2.993-4.474c1.086-1.525,2.264-2.992,3.409-4.384c1.148-1.381,2.281-2.628,3.271-3.726
			c0.997-1.059,1.854-1.943,2.461-2.563c0.607-0.625,0.961-0.967,0.961-0.967s-0.395-0.304-1.096-0.811
			c-0.702-0.51-1.713-1.239-2.959-2.109c-1.246-0.831-2.729-1.828-4.368-2.833c-1.64-0.994-3.438-2.057-5.302-3.026
			c-1.859-1.012-3.791-1.901-5.654-2.754c-1.869-0.789-3.668-1.55-5.258-2.091c-0.802-0.278-1.538-0.534-2.189-0.759
			c-0.659-0.222-1.244-0.385-1.727-0.531c-0.974-0.282-1.531-0.443-1.531-0.443l3.265,9.841L80.265,67.616z"/>
	</g>
</g>
</svg>
