<?xml version="1.0" encoding="utf-8"?>
<!-- Generator: Adobe Illustrator 16.0.0, SVG Export Plug-In . SVG Version: 6.00 Build 0)  -->
<!DOCTYPE svg PUBLIC "-//W3C//DTD SVG 1.1//EN" "http://www.w3.org/Graphics/SVG/1.1/DTD/svg11.dtd">
<svg version="1.1" id="Layer_1" xmlns="http://www.w3.org/2000/svg" xmlns:xlink="http://www.w3.org/1999/xlink" x="0px" y="0px"
	 width="300px" height="300px" viewBox="0 0 300 300" enable-background="new 0 0 300 300" xml:space="preserve">
<g>
	<g>
		<path d="M22.505,282.454l34.271-63.136c0.489-0.717,0.985-1.334,1.516-1.888L226.57,42.125c2.76-2.875,6.476-4.458,10.463-4.458
			c3.76,0,7.326,1.435,10.039,4.04l7.098,6.812c2.794,2.682,4.377,6.292,4.455,10.164c0.08,3.873-1.354,7.544-4.037,10.338
			L86.312,244.324c-0.14,0.146-0.285,0.309-0.43,0.469c-0.384,0.426-0.781,0.866-1.207,1.203
			c-12.432,9.861-53.098,31.613-54.823,32.535L22.505,282.454z M60.976,222.037l-26.085,48.074
			c12.6-6.895,37.73-20.936,46.679-28.033c0.111-0.093,0.404-0.418,0.598-0.633c0.179-0.199,0.36-0.399,0.536-0.582L250.981,65.557
			c1.758-1.83,2.696-4.235,2.646-6.772c-0.053-2.538-1.089-4.902-2.92-6.659l-7.098-6.812c-1.777-1.707-4.113-2.647-6.576-2.647
			c-2.613,0-5.047,1.038-6.855,2.921L61.9,220.893C61.587,221.219,61.284,221.594,60.976,222.037z"/>
		<g>
			<polygon points="37.465,260.018 44.61,266.877 28.675,276.326 			"/>
			<path d="M22.198,283.073l14.627-27.136l11.888,11.412L22.198,283.073z M38.106,264.099l-2.954,5.479l5.355-3.175L38.106,264.099z
				"/>
		</g>
		<path d="M79.605,246.112c-0.777,0-1.529-0.115-2.25-0.349c-3.578-1.156-5.828-4.844-6.689-10.961
			c-1.506-10.693-4.958-12.91-6.372-13.367c-1.5-0.484-2.868,0.211-3.648,1.023l-3.607-3.463c2.332-2.429,5.7-3.317,8.793-2.318
			c3.504,1.133,8.045,5.074,9.785,17.428c0.548,3.89,1.742,6.405,3.276,6.9c1.733,0.561,4.675-1.042,7.686-4.179l3.607,3.462
			C86.519,244.108,82.846,246.112,79.605,246.112z"/>
		<g>
			<path d="M229.759,42.414c0,0,12.628-16.021,18.467-19.238c7.416-4.086,29.472,0.104,24.433,23.453
				c-1.406,6.517-18.467,19.238-18.467,19.238S256.287,39.23,229.759,42.414z"/>
			<path d="M251.268,71.166l0.432-5.491c0.008-0.109,0.682-10.115-4.977-16.212c-3.635-3.916-9.273-5.457-16.666-4.567l-6.006,0.721
				l3.744-4.75c1.325-1.681,13.118-16.517,19.225-19.88c1.978-1.09,4.693-1.69,7.645-1.69c6.732,0,13.055,2.852,16.91,7.628
				c2.842,3.521,5.76,9.888,3.527,20.232c-1.525,7.075-16.441,18.497-19.416,20.715L251.268,71.166z M235.221,39.673
				c6.373,0.246,11.48,2.401,15.192,6.417c4.226,4.571,5.66,10.549,6.118,14.773c6.172-5.037,12.998-11.587,13.684-14.761
				c1.457-6.754,0.605-12.15-2.531-16.037c-3.434-4.253-8.977-5.769-13.02-5.769c-2.092,0-3.998,0.39-5.232,1.069
				C246.09,27.206,239.65,34.393,235.221,39.673z"/>
		</g>
	</g>
	<polygon points="73.774,234.851 70.155,231.4 232.066,60.563 235.686,64.013 	"/>
	<path d="M243.834,74.197c-0.09-5.728-1.629-15.669-5.377-17.961c-7.529-4.603-19.426,0.072-19.545,0.12l-1.492-3.711
		c0.562-0.226,13.872-5.477,23.123,0.179c6.84,4.182,7.265,19.573,7.291,21.314L243.834,74.197z"/>
	<path d="M237.529,81.484c-0.09-5.728-1.628-15.669-5.377-17.961c-7.527-4.603-19.425,0.073-19.545,0.12l-1.492-3.711
		c0.562-0.226,13.873-5.477,23.123,0.179c6.841,4.182,7.266,19.573,7.291,21.314L237.529,81.484z"/>
</g>
</svg>
